<svg width="103" height="73" viewBox="0 0 103 73" fill="none" xmlns="http://www.w3.org/2000/svg">
<path d="M96.0433 28.6592L85.3371 6.28322H64.9953V0.823059H13.9375V7.24678H58.6466V33.3806H91.5788L96.3645 39.526V56.3561H90.0478C89.3439 53.5543 87.7244 51.0679 85.4464 49.2914C83.1684 47.5149 80.3623 46.55 77.4734 46.55C74.5846 46.55 71.7785 47.5149 69.5004 49.2914C67.2224 51.0679 65.6029 53.5543 64.899 56.3561H45.4137C44.7098 53.5543 43.0903 51.0679 40.8123 49.2914C38.5342 47.5149 35.7281 46.55 32.8393 46.55C29.9504 46.55 27.1443 47.5149 24.8663 49.2914C22.5882 51.0679 20.9688 53.5543 20.2649 56.3561H13.9375V62.7798H20.2863C21.0089 65.5577 22.6328 68.0173 24.9036 69.773C27.1744 71.5287 29.9636 72.4812 32.8339 72.4812C35.7043 72.4812 38.4935 71.5287 40.7643 69.773C43.035 68.0173 44.659 65.5577 45.3816 62.7798H64.9204C65.643 65.5577 67.267 68.0173 69.5377 69.773C71.8085 71.5287 74.5977 72.4812 77.4681 72.4812C80.3384 72.4812 83.1276 71.5287 85.3984 69.773C87.6692 68.0173 89.2931 65.5577 90.0157 62.7798H102.777V37.3205L96.0326 28.6592H96.0433ZM32.8768 66.0773C31.5783 66.0773 30.309 65.6921 29.2295 64.9705C28.15 64.2489 27.3088 63.2233 26.8124 62.0235C26.316 60.8236 26.1867 59.5035 26.4408 58.2301C26.6949 56.9567 27.321 55.7874 28.2399 54.87C29.1588 53.9526 30.3292 53.3283 31.603 53.0763C32.8768 52.8243 34.1967 52.9558 35.3957 53.4542C36.5947 53.9525 37.619 54.7954 38.3388 55.8761C39.0587 56.9567 39.4418 58.2267 39.4397 59.5251C39.4383 60.3897 39.2661 61.2455 38.9329 62.0433C38.5998 62.8411 38.1123 63.5652 37.4985 64.1741C36.8847 64.7829 36.1566 65.2645 35.3561 65.5911C34.5556 65.9177 33.6985 66.083 32.8339 66.0773H32.8768ZM77.5109 66.0773C76.2124 66.0773 74.9431 65.6921 73.8636 64.9705C72.7841 64.2489 71.943 63.2233 71.4465 62.0235C70.9501 60.8236 70.8208 59.5035 71.0749 58.2301C71.329 56.9567 71.9551 55.7874 72.874 54.87C73.7929 53.9526 74.9633 53.3283 76.2371 53.0763C77.5109 52.8243 78.8308 52.9558 80.0298 53.4542C81.2289 53.9525 82.2531 54.7954 82.9729 55.8761C83.6928 56.9567 84.0759 58.2267 84.0738 59.5251C84.0724 60.3897 83.9002 61.2455 83.5671 62.0433C83.2339 62.8411 82.7465 63.5652 82.1326 64.1741C81.5188 64.7829 80.7907 65.2645 79.9902 65.5911C79.1898 65.9177 78.3326 66.083 77.4681 66.0773H77.5109ZM65.0703 12.7069H81.3223L88.1207 26.9676H65.0703V12.7069Z" fill="white"/>
<path d="M22.8225 39.8686H5.69263V46.2923H22.8225V39.8686Z" fill="white"/>
<path d="M30.3179 27.0211H0.340576V33.4448H30.3179V27.0211Z" fill="white"/>
<path d="M35.67 14.1736H5.69263V20.5974H35.67V14.1736Z" fill="white"/>
</svg>
